<mxfile host="Electron" agent="Mozilla/5.0 (Windows NT 10.0; Win64; x64) AppleWebKit/537.36 (KHTML, like Gecko) draw.io/24.7.17 Chrome/128.0.6613.36 Electron/32.0.1 Safari/537.36" version="24.7.17">
  <diagram name="Page-1" id="_0gBJUrocglC3CBvxP5u">
    <mxGraphModel dx="281" dy="613" grid="1" gridSize="10" guides="1" tooltips="1" connect="1" arrows="1" fold="1" page="1" pageScale="1" pageWidth="850" pageHeight="1100" math="0" shadow="0">
      <root>
        <mxCell id="0" />
        <mxCell id="1" parent="0" />
        <mxCell id="Ohn-kTnY_Tfg1xG04G4g-3" value="Start" style="ellipse;whiteSpace=wrap;html=1;" vertex="1" parent="1">
          <mxGeometry x="100" width="120" height="80" as="geometry" />
        </mxCell>
        <mxCell id="Ohn-kTnY_Tfg1xG04G4g-4" value="" style="endArrow=classic;html=1;rounded=0;exitX=0.5;exitY=1;exitDx=0;exitDy=0;" edge="1" parent="1" source="Ohn-kTnY_Tfg1xG04G4g-3">
          <mxGeometry width="50" height="50" relative="1" as="geometry">
            <mxPoint x="130" y="230" as="sourcePoint" />
            <mxPoint x="160" y="120" as="targetPoint" />
          </mxGeometry>
        </mxCell>
        <mxCell id="Ohn-kTnY_Tfg1xG04G4g-5" value="input last name" style="shape=parallelogram;perimeter=parallelogramPerimeter;whiteSpace=wrap;html=1;fixedSize=1;" vertex="1" parent="1">
          <mxGeometry x="100" y="120" width="120" height="60" as="geometry" />
        </mxCell>
        <mxCell id="Ohn-kTnY_Tfg1xG04G4g-6" value="" style="endArrow=classic;html=1;rounded=0;exitX=0.5;exitY=1;exitDx=0;exitDy=0;" edge="1" parent="1" source="Ohn-kTnY_Tfg1xG04G4g-5">
          <mxGeometry width="50" height="50" relative="1" as="geometry">
            <mxPoint x="130" y="230" as="sourcePoint" />
            <mxPoint x="160" y="220" as="targetPoint" />
          </mxGeometry>
        </mxCell>
        <mxCell id="Ohn-kTnY_Tfg1xG04G4g-7" value="input number of bathrooms" style="shape=parallelogram;perimeter=parallelogramPerimeter;whiteSpace=wrap;html=1;fixedSize=1;" vertex="1" parent="1">
          <mxGeometry x="100" y="220" width="120" height="60" as="geometry" />
        </mxCell>
        <mxCell id="Ohn-kTnY_Tfg1xG04G4g-8" value="input number of rooms" style="shape=parallelogram;perimeter=parallelogramPerimeter;whiteSpace=wrap;html=1;fixedSize=1;" vertex="1" parent="1">
          <mxGeometry x="100" y="320" width="120" height="60" as="geometry" />
        </mxCell>
        <mxCell id="Ohn-kTnY_Tfg1xG04G4g-9" value="" style="endArrow=classic;html=1;rounded=0;exitX=0.5;exitY=1;exitDx=0;exitDy=0;entryX=0.5;entryY=0;entryDx=0;entryDy=0;" edge="1" parent="1" source="Ohn-kTnY_Tfg1xG04G4g-7" target="Ohn-kTnY_Tfg1xG04G4g-8">
          <mxGeometry width="50" height="50" relative="1" as="geometry">
            <mxPoint x="130" y="230" as="sourcePoint" />
            <mxPoint x="180" y="180" as="targetPoint" />
          </mxGeometry>
        </mxCell>
        <mxCell id="Ohn-kTnY_Tfg1xG04G4g-10" value="" style="endArrow=classic;html=1;rounded=0;exitX=0.5;exitY=1;exitDx=0;exitDy=0;" edge="1" parent="1" source="Ohn-kTnY_Tfg1xG04G4g-8">
          <mxGeometry width="50" height="50" relative="1" as="geometry">
            <mxPoint x="130" y="230" as="sourcePoint" />
            <mxPoint x="160" y="420" as="targetPoint" />
          </mxGeometry>
        </mxCell>
        <mxCell id="Ohn-kTnY_Tfg1xG04G4g-12" value="ChargeOne = 15 * number of bathroom&amp;nbsp;" style="rounded=0;whiteSpace=wrap;html=1;" vertex="1" parent="1">
          <mxGeometry x="100" y="420" width="120" height="60" as="geometry" />
        </mxCell>
        <mxCell id="Ohn-kTnY_Tfg1xG04G4g-13" value="" style="endArrow=classic;html=1;rounded=0;exitX=0.5;exitY=1;exitDx=0;exitDy=0;" edge="1" parent="1" source="Ohn-kTnY_Tfg1xG04G4g-12">
          <mxGeometry width="50" height="50" relative="1" as="geometry">
            <mxPoint x="130" y="340" as="sourcePoint" />
            <mxPoint x="160" y="520" as="targetPoint" />
          </mxGeometry>
        </mxCell>
        <mxCell id="Ohn-kTnY_Tfg1xG04G4g-14" value="" style="endArrow=classic;html=1;rounded=0;exitX=0.5;exitY=1;exitDx=0;exitDy=0;" edge="1" parent="1" source="Ohn-kTnY_Tfg1xG04G4g-15">
          <mxGeometry width="50" height="50" relative="1" as="geometry">
            <mxPoint x="270" y="490" as="sourcePoint" />
            <mxPoint x="160" y="620" as="targetPoint" />
          </mxGeometry>
        </mxCell>
        <mxCell id="Ohn-kTnY_Tfg1xG04G4g-15" value="ChagreTwo = 10 * number of bedroom&amp;nbsp;" style="rounded=0;whiteSpace=wrap;html=1;" vertex="1" parent="1">
          <mxGeometry x="100" y="520" width="120" height="60" as="geometry" />
        </mxCell>
        <mxCell id="Ohn-kTnY_Tfg1xG04G4g-16" value="ChargeThree = ChargeOne + ChargeTwo + 40" style="rounded=0;whiteSpace=wrap;html=1;" vertex="1" parent="1">
          <mxGeometry x="100" y="620" width="120" height="60" as="geometry" />
        </mxCell>
        <mxCell id="Ohn-kTnY_Tfg1xG04G4g-17" value="" style="endArrow=classic;html=1;rounded=0;exitX=0.5;exitY=1;exitDx=0;exitDy=0;" edge="1" parent="1" source="Ohn-kTnY_Tfg1xG04G4g-16">
          <mxGeometry width="50" height="50" relative="1" as="geometry">
            <mxPoint x="150" y="640" as="sourcePoint" />
            <mxPoint x="160" y="730" as="targetPoint" />
          </mxGeometry>
        </mxCell>
        <mxCell id="Ohn-kTnY_Tfg1xG04G4g-18" value="output last name" style="shape=parallelogram;perimeter=parallelogramPerimeter;whiteSpace=wrap;html=1;fixedSize=1;" vertex="1" parent="1">
          <mxGeometry x="100" y="730" width="120" height="60" as="geometry" />
        </mxCell>
        <mxCell id="Ohn-kTnY_Tfg1xG04G4g-19" value="" style="endArrow=classic;html=1;rounded=0;exitX=0.5;exitY=1;exitDx=0;exitDy=0;" edge="1" parent="1" source="Ohn-kTnY_Tfg1xG04G4g-18">
          <mxGeometry width="50" height="50" relative="1" as="geometry">
            <mxPoint x="150" y="640" as="sourcePoint" />
            <mxPoint x="160" y="830" as="targetPoint" />
          </mxGeometry>
        </mxCell>
        <mxCell id="Ohn-kTnY_Tfg1xG04G4g-21" value="output ChargeOne&amp;nbsp;" style="shape=parallelogram;perimeter=parallelogramPerimeter;whiteSpace=wrap;html=1;fixedSize=1;" vertex="1" parent="1">
          <mxGeometry x="100" y="830" width="120" height="60" as="geometry" />
        </mxCell>
        <mxCell id="Ohn-kTnY_Tfg1xG04G4g-22" value="" style="endArrow=classic;html=1;rounded=0;exitX=0.5;exitY=1;exitDx=0;exitDy=0;" edge="1" parent="1" source="Ohn-kTnY_Tfg1xG04G4g-21">
          <mxGeometry width="50" height="50" relative="1" as="geometry">
            <mxPoint x="150" y="940" as="sourcePoint" />
            <mxPoint x="160" y="920" as="targetPoint" />
          </mxGeometry>
        </mxCell>
        <mxCell id="Ohn-kTnY_Tfg1xG04G4g-23" value="output ChargeTwo" style="shape=parallelogram;perimeter=parallelogramPerimeter;whiteSpace=wrap;html=1;fixedSize=1;" vertex="1" parent="1">
          <mxGeometry x="100" y="920" width="120" height="60" as="geometry" />
        </mxCell>
        <mxCell id="Ohn-kTnY_Tfg1xG04G4g-24" value="" style="endArrow=classic;html=1;rounded=0;exitX=0.5;exitY=1;exitDx=0;exitDy=0;" edge="1" parent="1" source="Ohn-kTnY_Tfg1xG04G4g-23">
          <mxGeometry width="50" height="50" relative="1" as="geometry">
            <mxPoint x="150" y="940" as="sourcePoint" />
            <mxPoint x="160" y="1020" as="targetPoint" />
          </mxGeometry>
        </mxCell>
        <mxCell id="Ohn-kTnY_Tfg1xG04G4g-25" value="output ChargeThree" style="shape=parallelogram;perimeter=parallelogramPerimeter;whiteSpace=wrap;html=1;fixedSize=1;" vertex="1" parent="1">
          <mxGeometry x="100" y="1020" width="120" height="60" as="geometry" />
        </mxCell>
        <mxCell id="Ohn-kTnY_Tfg1xG04G4g-26" value="" style="endArrow=classic;html=1;rounded=0;exitX=0.5;exitY=1;exitDx=0;exitDy=0;" edge="1" parent="1" source="Ohn-kTnY_Tfg1xG04G4g-25">
          <mxGeometry width="50" height="50" relative="1" as="geometry">
            <mxPoint x="200" y="1140" as="sourcePoint" />
            <mxPoint x="160" y="1130" as="targetPoint" />
          </mxGeometry>
        </mxCell>
        <mxCell id="Ohn-kTnY_Tfg1xG04G4g-27" value="Display Program complete&amp;nbsp;" style="shape=parallelogram;perimeter=parallelogramPerimeter;whiteSpace=wrap;html=1;fixedSize=1;" vertex="1" parent="1">
          <mxGeometry x="100" y="1130" width="120" height="60" as="geometry" />
        </mxCell>
        <mxCell id="Ohn-kTnY_Tfg1xG04G4g-28" value="Stop" style="ellipse;whiteSpace=wrap;html=1;" vertex="1" parent="1">
          <mxGeometry x="100" y="1230" width="120" height="80" as="geometry" />
        </mxCell>
        <mxCell id="Ohn-kTnY_Tfg1xG04G4g-29" value="" style="endArrow=classic;html=1;rounded=0;exitX=0.5;exitY=1;exitDx=0;exitDy=0;entryX=0.5;entryY=0;entryDx=0;entryDy=0;" edge="1" parent="1" source="Ohn-kTnY_Tfg1xG04G4g-27" target="Ohn-kTnY_Tfg1xG04G4g-28">
          <mxGeometry width="50" height="50" relative="1" as="geometry">
            <mxPoint x="200" y="1140" as="sourcePoint" />
            <mxPoint x="250" y="1090" as="targetPoint" />
          </mxGeometry>
        </mxCell>
      </root>
    </mxGraphModel>
  </diagram>
</mxfile>
